<svg width="49" height="48" fill="none" xmlns="http://www.w3.org/2000/svg"><path id="Vector" d="M25.627 11.988v10.867l8.669 5.418c.437.273.751.716.874 1.23.124.515.046 1.06-.217 1.515a1.93 1.93 0 0 1-1.18.91 1.855 1.855 0 0 1-1.455-.225l-9.6-6a1.966 1.966 0 0 1-.682-.73c-.163-.3-.249-.64-.248-.985v-12c0-.53.202-1.04.562-1.414.36-.375.848-.586 1.357-.586.51 0 .998.21 1.358.586.36.375.562.883.562 1.414Zm21.12-6c-.51 0-.998.21-1.358.586-.36.375-.562.883-.562 1.414v4.5a106.86 106.86 0 0 0-4.829-5.458C36.796 3.695 32.722 1.416 28.284.48a22.18 22.18 0 0 0-13.24 1.282C10.849 3.534 7.248 6.556 4.69 10.449 2.133 14.344.735 18.936.67 23.651c-.067 4.717 1.203 9.35 3.65 13.318 2.448 3.97 5.963 7.1 10.108 8.999a22.198 22.198 0 0 0 13.198 1.682c4.462-.803 8.599-2.957 11.892-6.195.184-.18.331-.397.434-.637a2.074 2.074 0 0 0-.357-2.193 1.924 1.924 0 0 0-.611-.452 1.86 1.86 0 0 0-2.106.372c-2.745 2.695-6.192 4.488-9.91 5.155a18.498 18.498 0 0 1-10.994-1.405c-3.453-1.584-6.381-4.192-8.42-7.499a20.62 20.62 0 0 1-3.041-11.095 20.582 20.582 0 0 1 3.348-10.999c2.13-3.244 5.129-5.762 8.624-7.241a18.484 18.484 0 0 1 11.029-1.074c3.698.778 7.093 2.674 9.763 5.45 1.953 2.06 3.664 4.046 5.39 6.15h-5.52c-.51 0-.997.212-1.358.587-.36.375-.562.883-.562 1.414 0 .53.202 1.039.562 1.414.36.375.849.586 1.358.586h9.6c.509 0 .997-.21 1.357-.586.36-.375.563-.884.563-1.414v-10c0-.53-.203-1.04-.563-1.414a1.882 1.882 0 0 0-1.357-.586Z" fill="#fff"/></svg>