<svg width="48" height="48" fill="none" xmlns="http://www.w3.org/2000/svg"><path id="Vector" d="M23.997 12.99a11.008 11.008 0 1 0 11.007 11.007 11.02 11.02 0 0 0-11.007-11.008Zm0 18.345a7.339 7.339 0 1 1 0-14.678 7.339 7.339 0 0 1 0 14.678Zm20.18-6.843c.01-.33.01-.66 0-.99l3.421-4.275a1.836 1.836 0 0 0 .34-1.62 24.585 24.585 0 0 0-2.495-6.02 1.834 1.834 0 0 0-1.376-.9l-5.44-.606a18.156 18.156 0 0 0-.688-.688l-.642-5.453a1.835 1.835 0 0 0-.903-1.376 24.7 24.7 0 0 0-6.02-2.493 1.834 1.834 0 0 0-1.619.342l-4.263 3.403h-.99L19.226.402a1.835 1.835 0 0 0-1.62-.34 24.677 24.677 0 0 0-6.02 2.495 1.834 1.834 0 0 0-.9 1.376l-.606 5.449c-.238.228-.468.457-.688.688l-5.453.626a1.835 1.835 0 0 0-1.376.903 24.7 24.7 0 0 0-2.493 6.02 1.835 1.835 0 0 0 .342 1.62L3.816 23.5v.99L.402 28.768a1.834 1.834 0 0 0-.34 1.619c.561 2.108 1.4 4.132 2.495 6.02a1.836 1.836 0 0 0 1.376.9l5.44.606c.227.238.457.468.688.688l.635 5.453a1.835 1.835 0 0 0 .903 1.376 24.702 24.702 0 0 0 6.02 2.493 1.835 1.835 0 0 0 1.62-.342l4.262-3.403c.33.01.66.01.99 0l4.276 3.421a1.835 1.835 0 0 0 1.619.34c2.108-.561 4.132-1.4 6.02-2.495a1.835 1.835 0 0 0 .9-1.376l.606-5.44c.238-.226.468-.455.688-.688l5.453-.642a1.835 1.835 0 0 0 1.376-.903 24.7 24.7 0 0 0 2.493-6.02 1.834 1.834 0 0 0-.342-1.619l-3.403-4.263Zm-3.692-1.49a16.99 16.99 0 0 1 0 1.99c-.027.454.115.901.399 1.256l3.254 4.066a20.995 20.995 0 0 1-1.429 3.44l-5.182.587c-.452.05-.869.266-1.17.606-.441.496-.911.966-1.408 1.408-.34.301-.555.718-.605 1.17l-.576 5.177a20.939 20.939 0 0 1-3.44 1.43l-4.068-3.255a1.835 1.835 0 0 0-1.147-.401h-.11c-.663.039-1.327.039-1.99 0a1.835 1.835 0 0 0-1.257.399L17.68 44.13a20.999 20.999 0 0 1-3.44-1.429l-.587-5.175a1.835 1.835 0 0 0-.606-1.17 16.975 16.975 0 0 1-1.408-1.408 1.835 1.835 0 0 0-1.17-.605l-5.177-.578a20.944 20.944 0 0 1-1.429-3.44l3.254-4.068c.284-.355.426-.803.4-1.257a16.951 16.951 0 0 1 0-1.99 1.835 1.835 0 0 0-.4-1.257l-3.254-4.075a21 21 0 0 1 1.429-3.44l5.175-.587c.452-.05.869-.266 1.17-.606a16.99 16.99 0 0 1 1.408-1.408c.341-.301.558-.719.608-1.171l.575-5.176a20.942 20.942 0 0 1 3.44-1.429l4.068 3.254c.355.284.803.426 1.257.4a16.951 16.951 0 0 1 1.99 0c.454.026.902-.116 1.257-.4l4.075-3.254c1.187.373 2.338.852 3.44 1.429l.587 5.175c.05.452.266.869.606 1.17.496.442.966.912 1.408 1.408.301.34.718.555 1.17.605l5.177.576a20.936 20.936 0 0 1 1.43 3.44l-3.255 4.068c-.287.358-.43.81-.399 1.268h.007Z" fill="#fff"/></svg>