<svg width="301" height="61" fill="none" xmlns="http://www.w3.org/2000/svg"><path d="M5.376 47V.28h10.496V47H5.376Zm16.706 0L37.506.28h16.96l16 46.72h-10.88L46.658 7.512l3.328 1.344H41.73l3.456-1.344L32.578 47H22.082Zm11.712-11.584 3.2-8.704h18.304l3.264 8.704H33.794Zm56.91 24.704c-1.493 0-3.05-.064-4.671-.192a51.772 51.772 0 0 1-4.672-.576v-3.008c1.535.256 3.135.448 4.8.576 1.706.17 3.306.256 4.8.256 3.413 0 6.1-.448 8.064-1.344 1.962-.853 3.37-2.283 4.224-4.288.853-1.963 1.28-4.587 1.28-7.872V36.76l1.536-4.672c-.043 3.072-.704 5.781-1.984 8.128-1.238 2.347-2.966 4.203-5.184 5.568-2.22 1.323-4.822 1.984-7.809 1.984-2.517 0-4.778-.47-6.783-1.408-1.963-.981-3.627-2.283-4.993-3.904a18.208 18.208 0 0 1-3.135-5.632 20.15 20.15 0 0 1-1.089-6.528v-.64c0-2.176.363-4.288 1.089-6.336.725-2.09 1.77-3.947 3.135-5.568 1.366-1.664 3.051-2.965 5.056-3.904 2.006-.981 4.288-1.472 6.849-1.472 3.114 0 5.802.704 8.064 2.112a13.916 13.916 0 0 1 5.184 5.696c1.237 2.39 1.877 5.035 1.92 7.936l-1.281-1.728V13.4h2.753v30.272c0 4.01-.555 7.21-1.664 9.6-1.11 2.432-2.923 4.181-5.44 5.248-2.518 1.067-5.867 1.6-10.049 1.6Zm.833-15.488c2.56 0 4.82-.555 6.783-1.664a12.425 12.425 0 0 0 4.609-4.672c1.109-2.005 1.664-4.267 1.664-6.784v-3.264c0-2.432-.555-4.608-1.664-6.528-1.067-1.963-2.582-3.52-4.544-4.672-1.963-1.152-4.225-1.728-6.785-1.728-2.816 0-5.205.683-7.167 2.048-1.92 1.365-3.393 3.157-4.417 5.376-1.023 2.219-1.535 4.63-1.535 7.232 0 2.688.533 5.163 1.6 7.424 1.066 2.219 2.56 3.99 4.48 5.312 1.962 1.28 4.287 1.92 6.975 1.92Zm43.71 3.456c-2.816 0-5.312-.512-7.488-1.536s-4.011-2.368-5.504-4.032a18.054 18.054 0 0 1-3.328-5.568 19.38 19.38 0 0 1-1.088-6.4v-.64c0-2.219.384-4.373 1.152-6.464a17.269 17.269 0 0 1 3.392-5.632c1.493-1.664 3.306-2.987 5.44-3.968 2.176-.981 4.65-1.472 7.424-1.472 2.73 0 5.162.49 7.296 1.472 2.176.981 4.01 2.304 5.504 3.968a17.286 17.286 0 0 1 3.392 5.632 17.746 17.746 0 0 1 1.216 6.464v.64c0 2.176-.384 4.31-1.152 6.4a17.455 17.455 0 0 1-3.392 5.568c-1.451 1.664-3.264 3.008-5.44 4.032-2.134 1.024-4.608 1.536-7.424 1.536Zm0-3.136c2.986 0 5.504-.683 7.552-2.048 2.09-1.365 3.669-3.157 4.736-5.376 1.109-2.261 1.664-4.693 1.664-7.296 0-2.688-.555-5.141-1.664-7.36-1.11-2.261-2.71-4.053-4.8-5.376-2.048-1.365-4.544-2.048-7.488-2.048-2.902 0-5.419.683-7.552 2.048-2.091 1.323-3.691 3.115-4.8 5.376-1.11 2.219-1.664 4.672-1.664 7.36 0 2.603.533 5.035 1.6 7.296a13.553 13.553 0 0 0 4.8 5.376c2.09 1.365 4.629 2.048 7.616 2.048ZM178.92 29.772c-.747 0-1.403-.165-1.968-.496a3.512 3.512 0 0 1-1.312-1.392c-.309-.597-.475-1.285-.496-2.064h.368v3.68h-.96V17.82h1.2v5.84l-.464 1.072c.021-.853.192-1.573.512-2.16.331-.597.768-1.05 1.312-1.36.555-.31 1.184-.464 1.888-.464.619 0 1.179.117 1.68.352a3.82 3.82 0 0 1 1.28.96c.363.405.635.875.816 1.408.192.523.288 1.077.288 1.664v.224c0 .576-.096 1.13-.288 1.664a4.462 4.462 0 0 1-.832 1.408 3.857 3.857 0 0 1-1.296.992c-.512.235-1.088.352-1.728.352Zm-.128-1.056c.64 0 1.189-.155 1.648-.464.459-.31.811-.725 1.056-1.248s.368-1.11.368-1.76c0-.661-.128-1.248-.384-1.76a2.872 2.872 0 0 0-1.072-1.232c-.459-.299-.997-.448-1.616-.448a3.22 3.22 0 0 0-1.568.384 2.888 2.888 0 0 0-1.12 1.088c-.267.459-.4 1.003-.4 1.632v.784c0 .597.133 1.125.4 1.584.277.448.651.8 1.12 1.056a3.22 3.22 0 0 0 1.568.384Zm5.805 4.08v-1.072h1.088c.373 0 .693-.048.96-.144.267-.085.491-.24.672-.464.181-.224.336-.533.464-.928l2.848-9.152h1.168l-2.976 9.488c-.171.544-.405.981-.704 1.312a2.552 2.552 0 0 1-1.072.736c-.416.15-.891.224-1.424.224h-1.024Zm2.752-3.504v-1.008h1.52v1.008h-1.52Zm-.144 0-3.072-8.256h1.232l2.96 8.256h-1.12ZM201.277 18.168a8.797 8.797 0 0 0-2.318 5.088l-.006.051a8.637 8.637 0 0 0-.021.278l-.011.179c-.004.07-.004.14-.005.21-.002.08-.004.16-.004.241 0 .066.003.132.005.198l.009.24c.005.078.011.155.018.232l.016.192c.011.095.022.19.036.286l.018.128c.018.114.038.227.059.341l.013.067c.027.13.055.259.088.388l.003.015c.176.698.44 1.38.791 2.028.067.125.138.248.212.37l.022.035a8.202 8.202 0 0 0 .54.782 7.34 7.34 0 0 0 .301.37 8.881 8.881 0 0 0 .492.527 8.524 8.524 0 0 0 .514.474 9.664 9.664 0 0 0 .388.314l.08.059c3.624 2.686 8.95 2.366 12.305-.884l1.567-1.52a9.83 9.83 0 0 1-4.643 1.15c-2.574 0-4.992-.97-6.808-2.73-1.815-1.759-2.815-4.102-2.815-6.597 0-1.601.411-3.139 1.186-4.5l-1.693 1.64c-.112.11-.221.221-.327.334l-.013.014h.001Z" fill="#0A0A0A"/><path d="m218.288 27.018 2.488-2.412c.92-.891.92-2.341 0-3.231a2.414 2.414 0 0 0-3.334 0l-5.998 5.813c-.88.854-2.109 1.337-3.366 1.327a4.775 4.775 0 0 1-1.059-.127 9.431 9.431 0 0 0 4.727 1.253c2.473 0 4.796-.931 6.541-2.621l.001-.002ZM202.502 20.679c0 1.616.438 3.166 1.257 4.522a4.316 4.316 0 0 1 1.192-4.15l6.488-6.287a4.981 4.981 0 0 0-3.332-1.262 4.899 4.899 0 0 0-3.227 1.172 8.745 8.745 0 0 0-2.378 6.005ZM215.949 19.788c.881-.854 2.11-1.333 3.365-1.328.363.003.718.047 1.059.127a9.43 9.43 0 0 0-4.727-1.253c-2.473 0-4.796.931-6.54 2.622l-2.489 2.412a2.238 2.238 0 0 0 0 3.231c.92.891 2.416.89 3.334 0l5.998-5.813v.002ZM222.513 32.3a8.745 8.745 0 0 0 2.378-6.005 8.705 8.705 0 0 0-1.258-4.522 4.316 4.316 0 0 1-1.192 4.15l-6.487 6.286a4.957 4.957 0 0 0 3.332 1.265 4.866 4.866 0 0 0 3.226-1.174h.001Z" fill="#0A0A0A"/><path d="m226.104 28.821.009-.01a8.792 8.792 0 0 0 2.322-5.1l.005-.042c.01-.095.015-.19.021-.285.004-.058.009-.114.011-.17.004-.072.004-.145.006-.218l.003-.234c0-.068-.002-.136-.005-.204-.003-.078-.004-.157-.009-.234a11.844 11.844 0 0 0-.034-.424 9.113 9.113 0 0 0-.035-.288l-.018-.125a8.112 8.112 0 0 0-.059-.342l-.013-.066a8.719 8.719 0 0 0-.087-.388l-.004-.016a8.723 8.723 0 0 0-.79-2.027l-.002-.004a9.117 9.117 0 0 0-.21-.365l-.024-.04a8.741 8.741 0 0 0-.207-.32l-.052-.076a9.16 9.16 0 0 0-.198-.276l-.083-.11a7.048 7.048 0 0 0-.302-.369 6.882 6.882 0 0 0-.318-.351 14.657 14.657 0 0 0-.17-.174l-.164-.159a9.262 9.262 0 0 0-.353-.317l-.149-.124a8.191 8.191 0 0 0-.317-.247c-3.624-2.687-8.952-2.367-12.307.884l-1.568 1.52a9.833 9.833 0 0 1 4.643-1.15c2.575 0 4.993.969 6.808 2.728 1.816 1.76 2.816 4.103 2.816 6.598 0 1.601-.411 3.139-1.186 4.5l1.692-1.64c.113-.11.223-.221.328-.334ZM249.512 17.675h-2.772V29.35h2.772V17.675Z" fill="#0A0A0A"/><path d="M249.501 17.675h-2.771V29.35h2.771V17.675Z" fill="#0A0A0A" style="mix-blend-mode:soft-light" opacity=".2"/><path d="M241.358 17.678h-2.772v11.675h2.772V17.678Z" fill="#0A0A0A"/><path d="M241.358 17.675h-2.772V29.35h2.772V17.675Z" fill="#0A0A0A" style="mix-blend-mode:soft-light" opacity=".3"/><path d="M236.039 17.678h-2.772v11.675h2.772V17.678Z" fill="#0A0A0A"/><path d="M236.039 17.675h-2.772V29.35h2.772V17.675Z" fill="#0A0A0A" style="mix-blend-mode:multiply" opacity=".2"/><path d="M249.512 29.35h-2.899l-8.026-11.675h3.006l7.92 11.675h-.001ZM257.82 29.48c-.927 0-1.751-.155-2.471-.463a5.297 5.297 0 0 1-1.826-1.267 5.553 5.553 0 0 1-1.139-1.859 6.393 6.393 0 0 1-.394-2.256v-.033c0-.757.137-1.49.409-2.2a5.904 5.904 0 0 1 1.163-1.883 5.576 5.576 0 0 1 1.823-1.307c.713-.325 1.51-.487 2.392-.487.457 0 .875.032 1.254.097.378.065.735.16 1.071.284.334.125.649.279.944.462.296.184.588.395.878.633l-.368.422a9.486 9.486 0 0 0-.787-.568 4.818 4.818 0 0 0-.863-.438 6.054 6.054 0 0 0-.989-.285 6.06 6.06 0 0 0-1.18-.105c-.782 0-1.491.148-2.128.446a5.161 5.161 0 0 0-1.633 1.183 5.24 5.24 0 0 0-1.047 1.71 5.622 5.622 0 0 0-.368 2.01v.032c0 .735.12 1.427.36 2.076a5.03 5.03 0 0 0 1.039 1.702 4.968 4.968 0 0 0 1.65 1.16c.648.285 1.385.429 2.212.429.413 0 .81-.04 1.189-.122a6.726 6.726 0 0 0 2.028-.785c.29-.173.553-.357.787-.55v-3.48h-4.172v-.536h4.741v4.237c-.547.487-1.209.9-1.985 1.234-.777.335-1.639.503-2.588.503l-.002.004ZM270.084 17.837h.536l5.563 11.447h-.62l-1.592-3.312h-7.255l-1.608 3.312h-.586l5.563-11.447h-.001Zm3.635 7.632-3.384-6.982-3.367 6.982h6.752-.001ZM283.906 29.48c-.928 0-1.751-.155-2.471-.463a5.301 5.301 0 0 1-1.827-1.267 5.569 5.569 0 0 1-1.139-1.859 6.392 6.392 0 0 1-.393-2.256v-.033c0-.757.137-1.49.409-2.2a5.904 5.904 0 0 1 1.163-1.883 5.572 5.572 0 0 1 1.822-1.307c.713-.325 1.511-.487 2.392-.487.458 0 .875.032 1.254.097s.736.16 1.071.284c.335.125.65.279.945.462.295.184.588.395.878.633l-.368.422a9.336 9.336 0 0 0-.788-.568 4.785 4.785 0 0 0-.863-.438 6.014 6.014 0 0 0-.988-.285 6.07 6.07 0 0 0-1.181-.105c-.782 0-1.491.148-2.127.446a5.166 5.166 0 0 0-1.634 1.183 5.238 5.238 0 0 0-1.046 1.71 5.623 5.623 0 0 0-.369 2.01v.032c0 .735.12 1.427.361 2.076a5.03 5.03 0 0 0 1.039 1.702 4.968 4.968 0 0 0 1.65 1.16c.648.285 1.384.429 2.212.429.412 0 .809-.04 1.189-.122a6.757 6.757 0 0 0 2.027-.785c.29-.173.553-.357.788-.55v-3.48h-4.172v-.536h4.741v4.237c-.548.487-1.209.9-1.985 1.234-.777.335-1.639.503-2.588.503l-.002.004ZM291.68 17.919h8.259v.502h-7.69v4.888h6.952v.502h-6.952v4.969h7.774v.503h-8.343V17.919Z" fill="#0A0A0A"/></svg>