<svg width="48" height="48" fill="none" xmlns="http://www.w3.org/2000/svg"><path id="Messenger" fill-rule="evenodd" clip-rule="evenodd" d="M24 0c13.255 0 24 10.745 24 24S37.255 48 24 48a23.9 23.9 0 0 1-11.671-3.025l-.733-.425-7.277 2.14c-1.753.516-3.387-1.01-3.071-2.748l.062-.261 2.14-7.277A23.9 23.9 0 0 1 0 24C0 10.745 10.745 0 24 0Zm-5.297 18.703-7.2 7.2a2.4 2.4 0 1 0 3.394 3.394l5.503-5.503 5.503 5.503a2.4 2.4 0 0 0 3.394 0l7.2-7.2a2.4 2.4 0 0 0-3.394-3.394L27.6 24.206l-5.503-5.503a2.4 2.4 0 0 0-3.394 0Z" fill="#2880FF"/></svg>