<svg width="49" height="48" fill="none" xmlns="http://www.w3.org/2000/svg"><path id="Vector" d="M40.949 8.889h-14.77V1.778c0-.472-.194-.924-.54-1.257A1.883 1.883 0 0 0 24.333 0c-.49 0-.959.187-1.305.52-.346.334-.54.786-.54 1.258v7.11H7.717c-1.959 0-3.837.75-5.222 2.084A6.98 6.98 0 0 0 .333 16v24.889a6.98 6.98 0 0 0 2.163 5.028A7.531 7.531 0 0 0 7.718 48h33.23c1.96 0 3.838-.75 5.222-2.083a6.98 6.98 0 0 0 2.163-5.028V16a6.98 6.98 0 0 0-2.163-5.028 7.531 7.531 0 0 0-5.221-2.083Zm3.692 32a3.49 3.49 0 0 1-1.081 2.514 3.765 3.765 0 0 1-2.611 1.041H7.718c-.98 0-1.918-.374-2.61-1.041a3.49 3.49 0 0 1-1.082-2.514V16a3.49 3.49 0 0 1 1.081-2.514 3.766 3.766 0 0 1 2.611-1.042h33.23c.98 0 1.92.375 2.612 1.042A3.49 3.49 0 0 1 44.64 16v24.889Zm-12-12.445H16.026a6.59 6.59 0 0 0-4.57 1.823 6.108 6.108 0 0 0-1.892 4.4c0 1.65.68 3.233 1.893 4.4a6.59 6.59 0 0 0 4.569 1.822H32.64a6.59 6.59 0 0 0 4.57-1.823 6.108 6.108 0 0 0 1.892-4.4c0-1.65-.681-3.232-1.893-4.4a6.59 6.59 0 0 0-4.569-1.822ZM27.103 32v5.333h-5.539V32h5.539Zm-13.847 2.667c0-.708.292-1.386.812-1.886.519-.5 1.223-.781 1.958-.781h1.846v5.333h-1.846c-.735 0-1.44-.28-1.958-.78a2.618 2.618 0 0 1-.811-1.886Zm19.385 2.666h-1.846V32h1.846c.735 0 1.439.281 1.958.781.52.5.811 1.178.811 1.886 0 .707-.291 1.385-.81 1.885-.52.5-1.224.781-1.959.781Zm-21.23-15.11c0-.528.162-1.044.466-1.482a2.75 2.75 0 0 1 1.243-.982 2.869 2.869 0 0 1 1.6-.152c.537.103 1.03.357 1.418.73.387.372.65.848.757 1.365a2.575 2.575 0 0 1-.157 1.54c-.21.488-.565.904-1.02 1.197-.455.294-.99.45-1.538.45a2.824 2.824 0 0 1-1.959-.781 2.618 2.618 0 0 1-.81-1.886Zm20.307 0c0-.528.162-1.044.467-1.482a2.75 2.75 0 0 1 1.242-.982 2.869 2.869 0 0 1 1.6-.152c.538.103 1.031.357 1.418.73.388.372.651.848.758 1.365a2.575 2.575 0 0 1-.157 1.54c-.21.488-.565.904-1.02 1.197-.456.294-.991.45-1.539.45a2.824 2.824 0 0 1-1.958-.781 2.617 2.617 0 0 1-.811-1.886Z" fill="#fff"/></svg>