<svg width="44" height="48" fill="none" xmlns="http://www.w3.org/2000/svg"><path id="Shopify" d="m28.677 47.965 14.43-3.127s-5.205-35.23-5.248-35.463c-.043-.23-.23-.386-.424-.386-.193 0-3.859-.271-3.859-.271s-2.544-2.545-2.853-2.816c-.072-.078-.153-.115-.23-.155l-1.816 42.218Zm1.196-42.293c-.043 0-.115.037-.153.037-.043 0-.582.158-1.43.424-.852-2.465-2.356-4.741-5.016-4.741h-.23C22.267.424 21.345 0 20.533 0c-6.211 0-9.188 7.755-10.11 11.689-2.392.737-4.125 1.276-4.326 1.354-1.351.424-1.386.461-1.539 1.738-.153.922-3.666 28.127-3.666 28.127L28.023 48l1.85-42.328Zm-7.066 1.887v.274c-1.499.464-3.159.965-4.781 1.467.928-3.548 2.66-5.288 4.164-5.945.392 1.005.617 2.354.617 4.204Zm-2.467-5.9c.268 0 .54.076.813.274-1.963.923-4.127 3.277-5.018 7.986-1.256.402-2.517.788-3.783 1.159 1.043-3.591 3.553-9.418 7.988-9.418Zm1.078 20.95s-1.62-.845-3.545-.845c-2.896 0-3.011 1.812-3.011 2.276 0 2.47 6.484 3.433 6.484 9.26 0 4.59-2.896 7.524-6.83 7.524-4.71 0-7.101-2.933-7.101-2.933l1.274-4.168s2.472 2.124 4.55 2.124a1.86 1.86 0 0 0 1.934-1.85c0-3.242-5.326-3.4-5.326-8.72 0-4.476 3.205-8.836 9.726-8.836 2.51 0 3.741.73 3.741.73l-1.896 5.437Zm2.473-19.525c1.389.16 2.279 1.737 2.853 3.515-.692.234-1.467.464-2.314.732V6.83c0-1.504-.194-2.74-.54-3.746Z" fill="#000"/></svg>