<svg width="48" height="48" fill="none" xmlns="http://www.w3.org/2000/svg"><g id="Slack"><path id="Vector" d="M43.385 22.153a4.615 4.615 0 1 0-4.616-4.614v4.614h4.616Zm-12.923 0a4.615 4.615 0 0 0 4.615-4.615V4.615a4.615 4.615 0 0 0-9.23 0v12.923a4.615 4.615 0 0 0 4.614 4.615Z" fill="#2EB67D"/><path id="Vector_2" d="M4.615 25.847a4.615 4.615 0 1 0 4.616 4.615v-4.615H4.615Zm12.923 0a4.615 4.615 0 0 0-4.615 4.615v12.923a4.615 4.615 0 0 0 9.23 0V30.462a4.615 4.615 0 0 0-4.614-4.615Z" fill="#E01E5A"/><path id="Vector_3" d="M25.847 43.385a4.615 4.615 0 1 0 4.614-4.616h-4.614v4.616Zm0-12.923a4.615 4.615 0 0 0 4.615 4.615h12.923a4.615 4.615 0 0 0 0-9.23H30.462a4.615 4.615 0 0 0-4.615 4.615Z" fill="#ECB22E"/><path id="Vector_4" d="M22.153 4.615a4.615 4.615 0 1 0-4.614 4.616h4.614V4.615Zm0 12.923a4.615 4.615 0 0 0-4.615-4.615H4.615a4.615 4.615 0 0 0 0 9.23h12.923a4.615 4.615 0 0 0 4.615-4.614Z" fill="#36C5F0"/></g></svg>