<svg width="49" height="48" fill="none" xmlns="http://www.w3.org/2000/svg"><path id="Vector" d="M37.904 25.043 27.233 21.1l-3.93-10.678a3.294 3.294 0 0 0-6.182 0L13.167 21.1 2.49 25.03a3.293 3.293 0 0 0 0 6.181l10.678 3.955 3.93 10.678a3.293 3.293 0 0 0 6.181 0l3.956-10.678 10.678-3.93a3.292 3.292 0 0 0 0-6.181l-.008-.012Zm-12.532 7.273a1.654 1.654 0 0 0-.98.98L20.2 44.651l-4.182-11.347a1.655 1.655 0 0 0-.99-.988L3.684 28.133l11.346-4.183a1.655 1.655 0 0 0 .989-.988L20.2 11.615l4.183 11.347a1.655 1.655 0 0 0 .98.98l11.355 4.191-11.346 4.183ZM26.82 6.62a1.655 1.655 0 0 1 1.655-1.655h3.31v-3.31a1.655 1.655 0 0 1 3.31 0v3.31h3.31a1.655 1.655 0 0 1 0 3.31h-3.31v3.31a1.655 1.655 0 1 1-3.31 0v-3.31h-3.31A1.655 1.655 0 0 1 26.82 6.62Zm21.513 9.929a1.655 1.655 0 0 1-1.654 1.655h-1.655v1.655a1.655 1.655 0 1 1-3.31 0v-1.655h-1.655a1.655 1.655 0 1 1 0-3.31h1.655v-1.655a1.655 1.655 0 0 1 3.31 0v1.655h1.654a1.655 1.655 0 0 1 1.655 1.655Z" fill="#fff"/></svg>