<svg width="46" height="48" fill="none" xmlns="http://www.w3.org/2000/svg"><g id="WhatsApp"><path id="Vector" d="M23 0C10.55 0 .5 10.05.5 22.5c0 5.1 1.65 9.9 4.8 13.8l-3.15 9.6c-.15.6 0 1.2.45 1.65.15.3.6.45.9.45.15 0 .45 0 .6-.15l10.35-4.65C17.15 44.4 20 45 23 45c12.45 0 22.5-10.05 22.5-22.5S35.45 0 23 0Z" fill="#25D366"/><path id="Vector_2" d="M36.05 30.75c-.6 1.8-2.85 3.3-4.8 3.6-.45.15-.9.15-1.5.15-1.2 0-3-.3-6.15-1.65-3.6-1.5-7.2-4.65-10.05-8.7V24c-.9-1.35-2.55-3.9-2.55-6.6 0-3.3 1.65-4.95 2.25-5.7.75-.75 1.8-1.2 3-1.2H17c1.05 0 1.8.3 2.55 1.8l.6 1.2c.45 1.2 1.05 2.55 1.2 2.7.45.9.45 1.65 0 2.4-.15.45-.45.75-.75 1.05-.15.3-.3.45-.45.45l-.3.3c.45.75 1.35 2.1 2.55 3.15 1.8 1.65 3.15 2.1 3.9 2.4.3-.3.6-.9 1.05-1.35l.15-.3c.75-1.05 1.95-1.35 3.15-.9.6.3 3.9 1.8 3.9 1.8l.3.15c.45.3 1.05.45 1.35 1.05.6 1.35.15 3.3-.15 4.35Z" fill="#fff"/></g></svg>