<svg width="48" height="48" fill="none" xmlns="http://www.w3.org/2000/svg"><path id="Wordpress" fill-rule="evenodd" clip-rule="evenodd" d="M0 23.999c0 9.5 5.52 17.709 13.526 21.599L2.078 14.232A23.917 23.917 0 0 0 0 24Zm40.201-1.21c0-2.968-1.066-5.021-1.978-6.619-1.217-1.978-2.358-3.652-2.358-5.63 0-2.206 1.672-4.26 4.03-4.26.107 0 .207.014.31.02A23.908 23.908 0 0 0 24 0C15.614 0 8.239 4.302 3.947 10.817c.564.018 1.095.028 1.545.028 2.51 0 6.396-.304 6.396-.304 1.293-.077 1.446 1.825.153 1.977 0 0-1.3.153-2.746.23l8.739 25.995 5.253-15.752-3.738-10.244a44.175 44.175 0 0 1-2.518-.23c-1.293-.076-1.142-2.053.152-1.976 0 0 3.963.304 6.322.304 2.51 0 6.396-.304 6.396-.304 1.294-.077 1.446 1.825.153 1.977 0 0-1.302.153-2.747.23l8.673 25.797 2.396-7.999c1.035-3.32 1.825-5.704 1.825-7.758Zm4.858-10.304c.104.765.163 1.584.163 2.468 0 2.434-.456 5.172-1.826 8.596l-7.33 21.194c7.135-4.16 11.933-11.89 11.933-20.744 0-4.173-1.066-8.095-2.94-11.514ZM24.421 26.098 17.22 47.022c2.15.633 4.425.978 6.78.978 2.794 0 5.475-.483 7.97-1.36a2.28 2.28 0 0 1-.172-.33l-7.377-20.212Z" fill="#00759D"/></svg>