<svg width="50" height="48" fill="none" xmlns="http://www.w3.org/2000/svg"><path id="Zapier" d="M25.015 0c1.36.002 2.696.117 3.996.335v14.008l9.93-9.906a24.144 24.144 0 0 1 5.674 5.658l-9.932 9.906h14.045c.218 1.296.333 2.624.333 3.983v.032c0 1.359-.115 2.69-.333 3.985H34.681l9.934 9.903a24.354 24.354 0 0 1-2.599 3.067h-.002a24.11 24.11 0 0 1-3.07 2.592l-9.933-9.906v14.008a24.509 24.509 0 0 1-3.994.335h-.034a24.5 24.5 0 0 1-3.991-.335V33.657l-9.931 9.906a24.136 24.136 0 0 1-5.674-5.659l9.932-9.903H1.274A23.87 23.87 0 0 1 .94 24.01v-.07c.002-.353.025-.783.058-1.229l.01-.134c.099-1.254.267-2.575.267-2.575H15.32l-9.932-9.906a23.733 23.733 0 0 1 2.597-3.06l.004-.006a24.014 24.014 0 0 1 3.073-2.592l9.93 9.906V.335A24.49 24.49 0 0 1 24.988 0h.028Zm-.002 18h-.023c-1.788 0-3.5.328-5.082.922a14.412 14.412 0 0 0-.924 5.067v.022c.002 1.783.33 3.49.926 5.067a14.4 14.4 0 0 0 5.08.92h.023c1.787 0 3.5-.326 5.08-.92.595-1.579.923-3.284.923-5.067v-.022c0-1.783-.328-3.491-.924-5.067a14.401 14.401 0 0 0-5.08-.921Z" fill="#FF4A00"/></svg>